<svg id="Layer_1" data-name="Layer 1" xmlns="http://www.w3.org/2000/svg" viewBox="0 0 20 20"><defs><style>.cls-1{fill:#231f20;}</style></defs><path class="cls-1" d="M10,2.72a3.5,3.5,0,1,1-3.5,3.5A3.5,3.5,0,0,1,10,2.72m0-1a4.5,4.5,0,1,0,4.5,4.5A4.49,4.49,0,0,0,10,1.72Z"/><path class="cls-1" d="M10.1,1a6.51,6.51,0,0,1,6.5,6.5c0,2.49-3.38,8.31-5.61,11.07a1.14,1.14,0,0,1-1.78,0C7,15.81,3.6,10,3.6,7.5A6.51,6.51,0,0,1,10.1,1m0-1A7.5,7.5,0,0,0,2.6,7.5c0,2.88,3.62,9,5.83,11.7a2.14,2.14,0,0,0,3.34,0C14,16.47,17.6,10.38,17.6,7.5A7.5,7.5,0,0,0,10.1,0Z"/></svg>