<svg xmlns="http://www.w3.org/2000/svg" viewBox="0 0 20 20"><defs><style>.cls-1{fill:#231f20;}.cls-2{fill:none;stroke:#231f20;stroke-linecap:round;stroke-miterlimit:10;}</style></defs><g id="shopping_02"><path class="cls-1" d="M15.81,6a1,1,0,0,1,1,.86l2.19,11A1,1,0,0,1,18,19H2a1,1,0,0,1-.76-.35A1,1,0,0,1,1,17.87l2.2-11a1,1,0,0,1,1-.83H15.81m0-1H4.19a2,2,0,0,0-2,1.67L0,17.67A2,2,0,0,0,2,20H18a2,2,0,0,0,2-2.33l-2.19-11a2,2,0,0,0-2-1.67Z"/><path class="cls-1" d="M6,8A1,1,0,1,0,7,9,1,1,0,0,0,6,8Z"/><path class="cls-1" d="M14,8a1,1,0,1,0,1,1,1,1,0,0,0-1-1Z"/><path class="cls-2" d="M6,9V4C6,1.79,7.79.53,10,.53S14,1.79,14,4V9"/><line class="cls-2" x1="1" y1="16" x2="19" y2="16"/></g></svg>